<?xml version="1.0" standalone="no"?>
<!DOCTYPE svg PUBLIC "-//W3C//DTD SVG 20010904//EN"
 "http://www.w3.org/TR/2001/REC-SVG-20010904/DTD/svg10.dtd">
<svg version="1.0" xmlns="http://www.w3.org/2000/svg"
 width="1318.000000pt" height="1318.000000pt" viewBox="0 0 1318.000000 1318.000000"
 preserveAspectRatio="xMidYMid meet">
<metadata>
Created by potrace 1.11, written by Peter Selinger 2001-2013
</metadata>
<g transform="translate(0.000000,1318.000000) scale(0.100000,-0.100000)"
fill="#000000" stroke="none">
<path d="M7705 13141 c-49 -21 -227 -96 -395 -166 -168 -70 -318 -133 -335
-140 -47 -21 -894 -375 -950 -397 -27 -11 -73 -30 -103 -44 -29 -13 -55 -24
-57 -24 -3 0 -24 -9 -48 -19 -23 -11 -136 -59 -252 -106 -248 -102 -508 -211
-550 -229 -34 -16 -55 -24 -210 -89 -60 -25 -240 -101 -400 -167 -159 -67
-333 -139 -385 -161 -52 -22 -104 -44 -115 -49 -11 -5 -200 -84 -420 -175
-220 -91 -413 -172 -430 -180 -16 -7 -208 -87 -425 -178 -217 -91 -494 -207
-615 -257 -121 -51 -247 -103 -280 -117 -33 -13 -69 -28 -80 -33 -36 -16 -157
-67 -465 -195 -168 -70 -318 -133 -335 -140 -63 -27 -345 -145 -450 -188
l-110 -46 -3 -3235 -2 -3236 59 -42 c33 -24 91 -64 128 -90 79 -55 349 -245
538 -378 72 -50 222 -156 335 -235 113 -79 234 -164 270 -190 36 -26 137 -97
225 -158 88 -62 171 -120 185 -130 14 -9 50 -34 80 -55 30 -20 57 -39 60 -43
5 -6 516 -364 590 -413 25 -17 50 -35 56 -41 7 -5 74 -53 150 -105 75 -52 142
-99 149 -105 6 -5 18 -14 28 -20 9 -5 106 -73 214 -149 181 -127 267 -188 408
-287 28 -20 120 -84 205 -144 85 -60 173 -121 195 -137 22 -15 58 -41 80 -56
22 -16 171 -120 330 -232 160 -112 322 -226 360 -253 39 -26 111 -77 160 -112
50 -35 133 -94 186 -130 l96 -66 124 51 c68 29 143 61 166 71 23 10 45 19 48
19 4 0 23 7 43 16 21 9 57 25 82 36 25 11 54 24 65 28 11 5 103 44 205 85 166
69 240 100 335 140 32 14 739 310 1140 477 132 55 254 106 270 113 17 8 140
60 275 115 135 56 259 108 275 115 17 8 71 30 120 50 50 21 109 46 132 56 24
11 45 19 48 19 2 0 28 11 57 24 29 13 148 63 263 111 116 48 224 93 240 100
17 7 210 88 430 180 388 162 487 203 550 230 17 8 98 41 180 75 83 33 174 72
203 86 29 13 55 24 58 24 3 0 20 6 37 14 18 8 61 27 97 41 36 14 79 32 95 40
17 7 210 88 430 180 220 92 414 173 430 180 17 8 125 53 240 101 116 47 224
92 240 100 24 10 573 241 623 261 9 4 12 661 12 3239 l0 3233 -22 16 c-13 9
-86 61 -163 115 -77 54 -176 124 -220 155 -44 31 -156 110 -250 175 -93 66
-179 126 -190 134 -11 8 -74 52 -140 98 -66 46 -145 101 -175 123 -30 21 -176
124 -325 229 -291 204 -286 201 -510 358 -151 105 -296 207 -370 260 -22 15
-76 53 -120 84 -44 30 -110 76 -146 102 -37 26 -163 114 -280 196 -308 215
-447 314 -505 358 -28 21 -56 38 -62 38 -5 0 -12 4 -14 8 -1 5 -41 35 -88 67
-47 32 -114 80 -150 105 -36 26 -87 62 -115 81 -27 20 -158 111 -290 204 -229
160 -308 216 -402 281 -22 16 -151 107 -286 202 -135 94 -252 174 -259 177 -7
2 -53 -13 -103 -34z"/>
</g>
</svg>
